PathFileType	4	(X/Y/Z)	/Users/niels/Desktop/University/Third Semester/Perception and Action/Exam/Gymnastics Motion Tracking/Code for Gym Tracking/Analyzed Data/Webcam_Backflip/id4_2_baseline_Sports2D/id4_2_baseline_Sports2D_px_person00.trc
DataRate	CameraRate	NumFrames	NumMarkers	Units	OrigDataRate	OrigDataStartFrame	OrigNumFrames
29.81132075471698	29.81132075471698	9	22	m	29.81132075471698	99	159
Frame#	Time	Hip			RHip			RKnee			RAnkle			RBigToe			RSmallToe			RHeel			LHip			LKnee			LAnkle			LBigToe			LSmallToe			LHeel			Neck			Head			Nose			RShoulder			RElbow			RWrist			LShoulder			LElbow			LWrist		
		X1	Y1	Z1	X2	Y2	Z2	X3	Y3	Z3	X4	Y4	Z4	X5	Y5	Z5	X6	Y6	Z6	X7	Y7	Z7	X8	Y8	Z8	X9	Y9	Z9	X10	Y10	Z10	X11	Y11	Z11	X12	Y12	Z12	X13	Y13	Z13	X14	Y14	Z14	X15	Y15	Z15	X16	Y16	Z16	X17	Y17	Z17	X18	Y18	Z18	X19	Y19	Z19	X20	Y20	Z20	X21	Y21	Z21	X22	Y22	Z22
99	3.320886075949367	0.9347800191237492	-0.5766883005705526	0.0	0.9350373219474261	-0.5763396647097903	0.0	0.9506530080243737	-0.6866791065065335	0.0	0.9328227325451959	-0.7936721869664191	0.0	0.9682238107687878	-0.8158542545639068	0.0	0.9633275453462552	-0.8162207994060647	0.0	0.9271339422610845	-0.8102708383588806	0.0	0.9386253412564417	-0.5744095342300669	0.0	0.9492948373264422	-0.6876300381079344	0.0	0.9310949783600077	-0.792974781993695	0.0	0.9652163654396624	-0.8158893512261792	0.0	0.9593203527340585	-0.8098081517571631	0.0	0.9214673151285429	-0.8051263151719308	0.0	0.9466986557915116	-0.42534155745214036	0.0	0.9726046128267738	-0.35272628762439534	0.0	0.976013752697314	-0.3869165961779282	0.0	0.945438913307118	-0.43309520608863183	0.0	0.9973242012413346	-0.37801330547332485	0.0	1.0245556280081056	-0.3188310970979871	0.0	0.9436637841131352	-0.43131113000608273	0.0	0.9894860965315028	-0.3831056765539058	0.0	1.0179310437347473	-0.32353116867435705	0.0
100	3.354430379746835	0.9361712187291683	-0.5805156290842254	0.0	0.9359182187781439	-0.5799578841233697	0.0	0.9505871454899805	-0.6901981813419427	0.0	0.9320769550022002	-0.7968791754974999	0.0	0.9669039101291728	-0.8186816359949258	0.0	0.9619099558444646	-0.8190227063649939	0.0	0.9264061429550307	-0.8133132762577978	0.0	0.940011788788084	-0.5780559568629801	0.0	0.9496800021343828	-0.6908027470403159	0.0	0.9308883739283901	-0.7961631443851843	0.0	0.9642816430302121	-0.8186510824846581	0.0	0.9585285465274881	-0.8125760692834522	0.0	0.9211736511157336	-0.8081141148582429	0.0	0.9469419314778085	-0.4288243738583688	0.0	0.9723266594003999	-0.35621493958756606	0.0	0.9757423381817868	-0.3910026734824675	0.0	0.9453755284385268	-0.43699545517455657	0.0	0.9959274432922726	-0.3811932513506359	0.0	1.022571579480262	-0.3217301264159002	0.0	0.9435901635458458	-0.4353489157120835	0.0	0.9884758441659742	-0.38652915450716885	0.0	1.0156373077987433	-0.32662165611133676	0.0
101	3.3879746835443036	0.9374029873391119	-0.5826897940199863	0.0	0.9366740197027583	-0.5820029343662885	0.0	0.9509620078791828	-0.6919949686281434	0.0	0.9314621825619932	-0.7983687362690928	0.0	0.9655539600016768	-0.819818107749531	0.0	0.9603100334906669	-0.8201618360774685	0.0	0.9256847035357539	-0.8146231787828548	0.0	0.9410757309004505	-0.5801193116828711	0.0	0.9500918777359991	-0.6922393373971095	0.0	0.9307559655734887	-0.7976576396662657	0.0	0.9628797681266754	-0.8198919967077125	0.0	0.9573767539153536	-0.813917311182665	0.0	0.9209483798466646	-0.8094241825288387	0.0	0.9469188119314005	-0.43062994477919864	0.0	0.9722682161693701	-0.3581524767776005	0.0	0.9753895597817956	-0.39351320896545045	0.0	0.9450419898146275	-0.4392025863438191	0.0	0.994811480255587	-0.38309262103416303	0.0	1.0212191318295825	-0.3232503261561564	0.0	0.9433770808397138	-0.4377811146231189	0.0	0.9874585197844011	-0.3886537331195392	0.0	1.0137179415619797	-0.32849378972211113	0.0
102	3.421518987341772	0.938497992170913	-0.5830844652338742	0.0	0.9373686643907777	-0.5823152511526841	0.0	0.9516153082206948	-0.691964578275742	0.0	0.9311428524045121	-0.7980092753343108	0.0	0.9643421846465652	-0.8192510027399611	0.0	0.9588288973166962	-0.8196187901545952	0.0	0.925181137841209	-0.8141005261985288	0.0	0.9419345204054523	-0.5804359771040271	0.0	0.9506066731751796	-0.6918803173145056	0.0	0.9308049673592831	-0.7972813016094372	0.0	0.9613908217136716	-0.8195391343190709	0.0	0.9562125004983094	-0.8137083161833274	0.0	0.9209160030807791	-0.8088935373279305	0.0	0.946668866006038	-0.4305681004597333	0.0	0.9724714772975207	-0.3582704658143044	0.0	0.9750193308634548	-0.39413014615022585	0.0	0.9444861834742603	-0.4394106734933978	0.0	0.9940445186965776	-0.3834131315684926	0.0	1.0204984131551555	-0.3231307184205062	0.0	0.9430179060745482	-0.43831495993796776	0.0	0.9865047189996577	-0.38919719763860994	0.0	1.0122980611538033	-0.3290342505914888	0.0
103	3.4550632911392403	0.9394864578621573	-0.5817352998525007	0.0	0.9380908961824858	-0.5809091367917664	0.0	0.9523580341795671	-0.690225144623207	0.0	0.9311053578594669	-0.7958589868279713	0.0	0.9632856812081443	-0.8171409940684282	0.0	0.9576199065987925	-0.8175059318917369	0.0	0.9249260959371496	-0.8118640815548953	0.0	0.9426594177994381	-0.5790137422462782	0.0	0.9511911239813114	-0.6898645504204686	0.0	0.9309937392111064	-0.7950691527374135	0.0	0.9600530936622023	-0.8176068875716485	0.0	0.9552394235746074	-0.8119338729399656	0.0	0.9210804818645572	-0.8065928797622476	0.0	0.9462494114314632	-0.4286912174038929	0.0	0.9728700809209989	-0.3565574030817954	0.0	0.9746491920329933	-0.3928390167698273	0.0	0.9437684564095091	-0.4375884526155795	0.0	0.9935494462293045	-0.38203954094731846	0.0	1.0202843990173236	-0.32133553395587655	0.0	0.9424904231942492	-0.4368592044814232	0.0	0.9856023355057143	-0.38800325785908946	0.0	1.011453159631981	-0.3282006404873827	0.0
104	3.488607594936709	0.9404345451389975	-0.5788249929598147	0.0	0.9389227111104039	-0.5779745816590045	0.0	0.9530511360881934	-0.6870755064997295	0.0	0.9312116390123887	-0.7922612908926193	0.0	0.9623581047050563	-0.8138084763117275	0.0	0.9566874645636821	-0.8141165746387835	0.0	0.9247915397301101	-0.8082784751224902	0.0	0.9432982942439195	-0.5760343642403349	0.0	0.9517483765072133	-0.6865011256069786	0.0	0.9312072551120014	-0.7913690253897495	0.0	0.95895448279411	-0.8142844401292874	0.0	0.954499189871287	-0.808775794986343	0.0	0.921352887756008	-0.8028827567925085	0.0	0.9457003158948017	-0.42526518204992525	0.0	0.9732770641005922	-0.35323887569622386	0.0	0.9742468370607473	-0.3898880924996799	0.0	0.9429602935491757	-0.43396856615329765	0.0	0.9931904000612154	-0.37904347559464124	0.0	1.0203965523455498	-0.3180113272557551	0.0	0.9417918274207423	-0.43354564927056694	0.0	0.984690181008288	-0.3850907706420693	0.0	1.0111994728996634	-0.3260065345581844	0.0
105	3.522151898734177	0.941404908534923	-0.5747146985250041	0.0	0.9398832886676046	-0.5738763465461263	0.0	0.9536215863552545	-0.682931520020801	0.0	0.9313409102141463	-0.7877820007468725	0.0	0.9616407029707496	-0.8096765378999115	0.0	0.9560227970535785	-0.8099127049488583	0.0	0.9246306372663543	-0.8038761366227192	0.0	0.943903520775192	-0.5718570673789268	0.0	0.9522002216994445	-0.6821913165560274	0.0	0.9313779453047379	-0.7867475106432988	0.0	0.95820357865186	-0.8099428004087873	0.0	0.9540261404723854	-0.8045953161956862	0.0	0.9216366064795523	-0.7983078619680112	0.0	0.9450630554147603	-0.42070429118853503	0.0	0.9734976470347334	-0.34871933607887273	0.0	0.9738178429535128	-0.38567962018669855	0.0	0.9421518556565307	-0.42901349722765064	0.0	0.9928414467186013	-0.3747137956542361	0.0	1.0206309363012405	-0.3134660677883359	0.0	0.9409619697331729	-0.4287651613435458	0.0	0.983691139957836	-0.3807377673156155	0.0	1.0114151867279044	-0.32259036052317586	0.0
106	3.5556962025316454	0.9423921289675523	-0.5699255565315116	0.0	0.9409309878084011	-0.5691185181920704	0.0	0.9540309509794513	-0.67825872826867	0.0	0.9314494070665387	-0.7829971372879369	0.0	0.9612260930625991	-0.8051872304309015	0.0	0.9556223866777543	-0.8054059861023576	0.0	0.9244043823162599	-0.7991841486358573	0.0	0.9445010636624445	-0.5669918956836519	0.0	0.9525219426166329	-0.6773587851891775	0.0	0.9315218382177649	-0.7817748394933044	0.0	0.9579247887155554	-0.8050748174388616	0.0	0.9538912181619135	-0.7998461906828908	0.0	0.921899533425298	-0.7933831884538651	0.0	0.9444128473060428	-0.41552555829503585	0.0	0.9734796980596143	-0.34353365512215706	0.0	0.9734299638650248	-0.3807328284472596	0.0	0.9414634861496582	-0.42333500667877133	0.0	0.9924526581733116	-0.3694977601061035	0.0	1.0208281754800312	-0.3081169828106847	0.0	0.9400594903688925	-0.42312316080685836	0.0	0.9825688573336129	-0.3754490789701002	0.0	1.0118634489853906	-0.31824907629777677	0.0
107	3.589240506329114	0.9433198015252537	-0.5650532935893106	0.0	0.9420065286285055	-0.5642583253872622	0.0	0.9542667198256213	-0.6735165568945233	0.0	0.9315275135122072	-0.7783148391033007	0.0	0.9610725440670149	-0.8007287771806603	0.0	0.9554440241429446	-0.8010287240280766	0.0	0.9241662068023831	-0.7945849367894678	0.0	0.9450456412246672	-0.5620262611140359	0.0	0.9527112101049677	-0.6724470805341745	0.0	0.9316831100708961	-0.7768722252924828	0.0	0.9581562141487604	-0.8002128721588048	0.0	0.9541379019555835	-0.7949864413902563	0.0	0.9221622925699711	-0.788463229290598	0.0	0.9438408694673301	-0.4103080887450749	0.0	0.9733126938797168	-0.338271553022753	0.0	0.9731277111175195	-0.37567268654367375	0.0	0.9410109080545228	-0.41759224037670134	0.0	0.9920515355657081	-0.3638883761313734	0.0	1.0209171212999724	-0.30243807255424904	0.0	0.9391567609742962	-0.41732842750961824	0.0	0.9814183775484369	-0.3698033246394295	0.0	1.0123472578834538	-0.31336803218962656	0.0
